<?xml version="1.0" encoding="utf-8"?>
<!-- Generator: Adobe Illustrator 23.0.3, SVG Export Plug-In . SVG Version: 6.00 Build 0)  -->
<svg version="1.1" id="Layer_1" xmlns="http://www.w3.org/2000/svg" xmlns:xlink="http://www.w3.org/1999/xlink" x="0px" y="0px"
	 viewBox="0 0 24 24" style="enable-background:new 0 0 24 24;" xml:space="preserve">
<style type="text/css">
	.st0{fill:#FFFFFF;}
</style>
<g id="Group_482" transform="translate(0 0)">
	<path id="Path_650" class="st0" d="M11.9,20.2L11.9,20.2c-2.2,0-8.6-5.9-8.6-11.4c0-2.6,2.1-4.8,4.7-5c1.7,0.1,3.2,1,4.1,2.4
		c0.9-1.4,2.4-2.3,4.1-2.4c2.6,0.2,4.7,2.3,4.7,5C20.5,14.3,14.1,20,11.9,20.2L11.9,20.2z M7.8,5.1C5.9,5.2,4.4,6.9,4.4,8.8
		c0,5,6,9.9,7.3,10.1c1.3,0,7.3-5.1,7.3-10.1c0-1.9-1.5-3.6-3.4-3.7c-2.2,0-3.4,2.5-3.4,2.6c-0.3,0.5-1,0.5-1.2,0
		C10.6,6.3,9.3,5.2,7.8,5.1z"/>
</g>
</svg>
