<?xml version="1.0" encoding="utf-8"?>
<!-- Generator: Adobe Illustrator 23.0.3, SVG Export Plug-In . SVG Version: 6.00 Build 0)  -->
<svg version="1.1" id="Layer_1" xmlns="http://www.w3.org/2000/svg" xmlns:xlink="http://www.w3.org/1999/xlink" x="0px" y="0px"
	 viewBox="0 0 24 24" style="enable-background:new 0 0 24 24;" xml:space="preserve">
<style type="text/css">
	.st0{fill:#FFFFFF;}
</style>
<g id="Group_484" transform="translate(0 0)">
	<path id="Path_653" class="st0" d="M23,14.9c-0.2-0.3-0.6-0.3-0.9,0c0,0,0,0,0,0l-2.2,2.2V7.7c0-1.8-1.4-3.3-3.2-3.3c0,0,0,0-0.1,0
		h-5.8c-0.3,0-0.6,0.2-0.7,0.6c0,0,0,0,0,0.1c0,0.3,0.2,0.6,0.6,0.7c0,0,0,0,0.1,0h5.8c1.1,0,1.9,0.9,2,2v9.4l-2.2-2.2
		c-0.3-0.2-0.7-0.2-0.9,0c-0.2,0.2-0.2,0.6,0,0.9l3.3,3.3c0.1,0.1,0.2,0.1,0.4,0.1c0.1,0,0.3-0.1,0.4-0.1l3.3-3.3
		C23.3,15.5,23.3,15.1,23,14.9z"/>
	<path id="Path_654" class="st0" d="M13.1,18.2H7.3c-1.1,0-1.9-0.9-2-2V6.9l2.2,2.2C7.7,9.2,7.8,9.3,8,9.3c0.1,0,0.4,0,0.4-0.1
		c0.3-0.2,0.3-0.6,0-0.9c0,0,0,0,0,0L5.2,4.8C5,4.6,4.6,4.5,4.3,4.8c0,0,0,0,0,0L1,8.1C0.8,8.3,0.7,8.7,1,9c0.2,0.3,0.7,0.3,0.9,0
		c0,0,0,0,0,0l2.2-2.2v9.6c0,1.8,1.4,3.3,3.2,3.3c0,0,0,0,0.1,0h5.6c0.3,0,0.6-0.2,0.7-0.6c0,0,0,0,0-0.1
		C13.7,18.5,13.5,18.2,13.1,18.2z"/>
</g>
</svg>
