<?xml version="1.0" encoding="utf-8"?>
<!-- Generator: Adobe Illustrator 23.0.3, SVG Export Plug-In . SVG Version: 6.00 Build 0)  -->
<svg version="1.1" id="Layer_1" xmlns="http://www.w3.org/2000/svg" xmlns:xlink="http://www.w3.org/1999/xlink" x="0px" y="0px"
	 viewBox="0 0 24 24" style="enable-background:new 0 0 24 24;" xml:space="preserve">
<style type="text/css">
	.st0{fill:#FFFFFF;}
</style>
<path id="Path_651" class="st0" d="M13.8,3.5h-3.7c-3.7,0-6.7,3-6.7,6.7c0,3.5,2.9,6.4,6.4,6.4v3.3c0,0.1,0,0.3,0.1,0.4
	c0.1,0.2,0.3,0.3,0.5,0.3c0.1,0,0.3,0,0.4-0.1c2.4-1.5,4.7-3,6.9-4.7c1.7-1.4,2.6-3.4,2.6-5.5l0,0C20.5,6.5,17.5,3.5,13.8,3.5z
	 M17.1,14.6c-0.9,0.8-4.2,2.9-5.9,4.1v-2.7c0-0.3-0.2-0.6-0.6-0.7c0,0,0,0-0.1,0h-0.4c-2.8,0.2-5.2-1.9-5.4-4.7c0-0.1,0-0.3,0-0.4
	c0-2.9,2.3-5.3,5.2-5.4c0,0,0.1,0,0.1,0h3.5c2.9-0.1,5.4,2.2,5.5,5.2c0,0.1,0,0.1,0,0.2C19.2,11.9,18.4,13.5,17.1,14.6z"/>
</svg>
