<svg data-name="Livello 1" viewBox="0 0 128 128" xmlns="http://www.w3.org/2000/svg"><path d="M64 128a6.9 6.9 0 0 1-4.89-2L26.23 93.12A55.05 55.05 0 0 1 10 53.69a53.29 53.29 0 0 1 15.87-38.11 54.56 54.56 0 0 1 76.26 0A53.29 53.29 0 0 1 118 53.69a55.05 55.05 0 0 1-16.23 39.43l-32.88 32.82A6.9 6.9 0 0 1 64 128ZM64 6a48.19 48.19 0 0 0-33.92 13.85A47.34 47.34 0 0 0 16 53.7a49.1 49.1 0 0 0 14.47 35.17l32.87 32.82a.91.91 0 0 0 1.31 0l32.88-32.82A49.1 49.1 0 0 0 112 53.7a47.34 47.34 0 0 0-14.08-33.85A48.19 48.19 0 0 0 64 6Z" fill="#a23193" class="fill-000000"></path><path d="M64 81.41a27.25 27.25 0 1 1 19.3-8 27.23 27.23 0 0 1-19.3 8Zm0-48.49a21.26 21.26 0 1 0 15.06 6.22A21.25 21.25 0 0 0 64 32.92Z" fill="#a23193" class="fill-000000"></path></svg>