<svg viewBox="0 0 50 50" xml:space="preserve" xmlns="http://www.w3.org/2000/svg"><path fill="none" d="M0 0h50v50H0z"></path><path d="M46 15v-4a2 2 0 0 0-2-2H18c-1.469 0-2.484-4-4-4H3a2 2 0 0 0-2 2v37a2 2 0 0 0 2 2h39a2 2 0 0 0 2-2" fill="none" stroke="#a23193" stroke-linecap="round" stroke-miterlimit="10" stroke-width="2" class="stroke-000000"></path><path d="m1 44 5-27a2 2 0 0 1 2-2h39a2 2 0 0 1 2 2l-5 27" fill="none" stroke="#a23193" stroke-linecap="round" stroke-miterlimit="10" stroke-width="2" class="stroke-000000"></path></svg>