<svg viewBox="0 0 32 32" xml:space="preserve" xmlns="http://www.w3.org/2000/svg"><g fill="#a23193" class="fill-121313"><path d="m11.98 6.99 19 .02a1 1 0 0 0 0-2l-19-.02a1 1 0 0 0 0 2zM31 15l-19-.02a1 1 0 0 0 0 2L31 17a1 1 0 0 0 0-2zM31 25l-19-.02a1 1 0 0 0 0 2L31 27a1 1 0 0 0 0-2zM3.99 2.02a3.99 3.99 0 1 0-.001 7.979A3.99 3.99 0 0 0 3.99 2.02zm-.01 5.99c-1.124 0-2.025-.876-2.025-2s.901-2 2.025-2c1.124 0 2 .876 2 2s-.876 2-2 2zM3.99 12.02a3.99 3.99 0 1 0-.001 7.979 3.99 3.99 0 0 0 .001-7.979zm-.01 5.99c-1.124 0-2.025-.876-2.025-2s.901-2 2.025-2c1.124 0 2 .876 2 2s-.876 2-2 2zM3.99 22a3.99 3.99 0 1 0-.001 7.979A3.99 3.99 0 0 0 3.99 22zm-.01 5.99c-1.124 0-2.025-.876-2.025-2s.901-2 2.025-2c1.124 0 2 .876 2 2s-.876 2-2 2z"></path></g></svg>