<svg viewBox="0 0 50 50" xml:space="preserve" xmlns="http://www.w3.org/2000/svg" enable-background="new 0 0 50 50"><path d="M35.835 20.579C38.335 18.978 40 16.183 40 13c0-4.963-4.038-9-9-9-.857 0-1.705.128-2.531.373C26.635 2.31 23.971 1 21 1c-5.514 0-10 4.486-10 10a9.996 9.996 0 0 0 4.38 8.265C9.463 20.481 5 25.729 5 32v17h32v-4h8V33c0-5.834-3.863-10.781-9.165-12.421zM29.722 6.12C30.144 6.04 30.571 6 31 6c3.86 0 7 3.141 7 7s-3.14 7-7 7c-1.373 0-2.695-.4-3.826-1.144l.042-.037a10.094 10.094 0 0 0 2.195-2.431l.067-.11a9.787 9.787 0 0 0 .896-1.828l.071-.193c.096-.276.177-.557.249-.844.019-.074.04-.148.057-.222a9.71 9.71 0 0 0 .15-.86c.011-.078.027-.154.035-.232.04-.36.064-.727.064-1.099 0-.396-.029-.785-.074-1.169-.014-.121-.037-.24-.055-.361a9.953 9.953 0 0 0-.252-1.173 9.955 9.955 0 0 0-.284-.855c-.029-.075-.052-.152-.083-.227a9.889 9.889 0 0 0-.53-1.095zM13 11c0-4.411 3.589-8 8-8a7.989 7.989 0 0 1 6.162 2.904l.064.083c.049.06.092.125.139.186a8.028 8.028 0 0 1 1.171 2.167c.019.053.04.104.057.157.119.357.208.724.275 1.096.014.079.025.159.037.239.056.385.095.773.095 1.168 0 .328-.025.652-.065.973-.009.076-.023.15-.034.225a7.904 7.904 0 0 1-.159.782l-.042.165a8.034 8.034 0 0 1-.771 1.836l-.02.033a8.122 8.122 0 0 1-.532.797l-.054.073a8.013 8.013 0 0 1-1.417 1.422l-.085.064a8.021 8.021 0 0 1-.797.534l-.095.058-.155.09A7.97 7.97 0 0 1 21 19c-4.411 0-8-3.589-8-8zm22 36H7V32c0-6.065 4.935-11 11-11h6c1.495 0 2.921.302 4.222.845l.192.086c.111.049.218.105.327.158.297.142.584.297.864.463.127.076.256.15.38.231a11.153 11.153 0 0 1 .783.563c.115.09.229.179.34.273a10.973 10.973 0 0 1 .861.82c.135.143.269.287.397.436a11.112 11.112 0 0 1 .573.738c.088.122.176.244.259.37a11.26 11.26 0 0 1 .631 1.104 9.88 9.88 0 0 1 .567 1.345c.046.134.096.267.137.403.084.279.157.562.219.849.024.11.041.223.062.334a10.669 10.669 0 0 1 .138.991c.027.327.048.657.048.991v15zm8-4h-6V32c0-.475-.029-.943-.079-1.405-.012-.111-.035-.219-.05-.329a12.969 12.969 0 0 0-.179-1.052c-.026-.116-.06-.229-.089-.344a13.175 13.175 0 0 0-.285-.994c-.038-.113-.082-.224-.123-.336-.117-.32-.244-.634-.385-.942a14.542 14.542 0 0 0-.834-1.536c-.178-.28-.367-.551-.565-.817-.075-.1-.147-.202-.224-.3a13.32 13.32 0 0 0-.687-.793c-.07-.075-.134-.153-.206-.227a13.118 13.118 0 0 0-.993-.922C38.227 22.163 43 27.035 43 33v10z" fill="#a23193" class="fill-000000"></path></svg>