<svg viewBox="0 0 139 139" xml:space="preserve" xmlns="http://www.w3.org/2000/svg"><path d="m90.836 83.216-16.9-9.557V38.768a4.602 4.602 0 0 0-9.203 0v37.575c0 .059.016.115.017.174.006.162.025.319.048.479.021.146.042.291.076.433.035.141.082.277.129.414.051.146.1.287.164.426.061.133.134.257.208.383.075.127.148.254.234.374.088.122.188.235.288.349.097.11.192.217.299.317.107.101.222.19.339.28.126.098.253.191.39.276.052.031.092.073.145.102l19.236 10.878a4.6 4.6 0 0 0 6.27-1.74 4.604 4.604 0 0 0-1.74-6.272z" fill="#a23193" class="fill-000000"></path><path d="M69.5 6.666C34.853 6.666 6.666 34.853 6.666 69.5c0 34.646 28.187 62.834 62.834 62.834 34.646 0 62.834-28.188 62.834-62.834 0-34.647-28.188-62.834-62.834-62.834zm4 115.501V113h-8v9.167C40.73 120.302 20.677 101.295 17.208 77h9.459v-8h-9.988c.258-27.558 21.716-50.126 48.821-52.167V26h8v-9.167c27.104 2.041 48.563 24.609 48.821 52.167h-9.487v8h8.958c-3.469 24.295-23.521 43.302-48.292 45.167z" fill="#a23193" class="fill-000000"></path></svg>