<svg viewBox="0 0 32 32" xmlns="http://www.w3.org/2000/svg"><g data-name="folder, documentation, file, library, archive, data, multimedia"><path d="M29 11h-2V3a1 1 0 0 0-1-1H6a1 1 0 0 0-1 1v12H3a1 1 0 0 0-1 1v13a1 1 0 0 0 1 1h26a1 1 0 0 0 1-1V12a1 1 0 0 0-1-1ZM7 4h18v7h-9a1 1 0 0 0-.89.55L13.38 15H7Zm21 24H4V17h10a1 1 0 0 0 .89-.55L16.62 13H28Z" fill="#ffffff" class="fill-000000"></path><path d="M15.6 18.2a1 1 0 0 0-1.6.8v6a1 1 0 0 0 .55.89 1 1 0 0 0 1-.09l4-3a1 1 0 0 0 0-1.6ZM16 23v-2l1.33 1Z" fill="#ffffff" class="fill-000000"></path></g></svg>