<svg viewBox="0 0 256 256" xmlns="http://www.w3.org/2000/svg"><path fill="none" d="M0 0h256v256H0z"></path><path d="M210 46a51.8 51.8 0 0 0-73.5 0l-19.8 19.8A8 8 0 0 0 128 77.1l19.8-19.8a36.1 36.1 0 0 1 50.9 0 35.9 35.9 0 0 1 0 50.9l-28.3 28.3a36.1 36.1 0 0 1-50.9 0 8 8 0 1 0-11.3 11.3 52 52 0 0 0 73.5 0l28.3-28.3a51.8 51.8 0 0 0 0-73.5Z" fill="#a23193" class="fill-000000"></path><path d="m128 178.9-19.8 19.8a36 36 0 0 1-50.9-50.9l28.3-28.3a36.1 36.1 0 0 1 50.9 0 8 8 0 0 0 11.3-11.3 52 52 0 0 0-73.5 0L46 136.5a52 52 0 1 0 73.5 73.5l19.8-19.8a8 8 0 0 0-11.3-11.3Z" fill="#a23193" class="fill-000000"></path></svg>