<svg viewBox="0 0 32 32" xmlns="http://www.w3.org/2000/svg"><g data-name="Layer 2"><path d="M19.43 10h-2.57a.5.5 0 0 0 0 1h2.57a.5.5 0 0 0 0-1ZM19.43 12.75h-1.72a.5.5 0 0 0 0 1h1.72a.5.5 0 0 0 0-1ZM6.57 8.25H10a.5.5 0 0 0 0-1H6.57a.5.5 0 0 0 0 1ZM6.57 11h7.72a.5.5 0 0 0 0-1H6.57a.5.5 0 0 0 0 1ZM16 12.75H6.57a.5.5 0 0 0 0 1H16a.5.5 0 0 0 .5-.5.5.5 0 0 0-.5-.5ZM19.43 7.25h-7.72a.5.5 0 0 0 0 1h7.72a.5.5 0 0 0 0-1Z" fill="#a23193" class="fill-000000"></path><path d="M28 8.17h-5.5V5a.5.5 0 0 0-.5-.5H4a.51.51 0 0 0-.5.5v11a.5.5 0 0 0 .5.5h2.78l-1.55 5.88a.5.5 0 0 0 .24.57.53.53 0 0 0 .24.06.52.52 0 0 0 .37-.16l5.13-5.57v3.3a.5.5 0 0 0 .5.5h7.48l5 6.23a.51.51 0 0 0 .39.19.59.59 0 0 0 .23-.05.49.49 0 0 0 .25-.58l-1.54-5.79H28a.5.5 0 0 0 .5-.5V8.67a.5.5 0 0 0-.5-.5Zm-16.48 7.37a.71.71 0 0 0-.14.1l-4.64 5 1.2-4.56a.49.49 0 0 0-.48-.63H4.5V5.5h17v10h-9.79a.58.58 0 0 0-.19.04Zm16 4.54h-4.66a.52.52 0 0 0-.4.2.51.51 0 0 0-.09.43l1.1 4.12-3.65-4.56a.51.51 0 0 0-.39-.19h-7.22V16.5H22a.5.5 0 0 0 .5-.5V9.17h5Z" fill="#a23193" class="fill-000000"></path></g></svg>